<mxfile host="app.diagrams.net" modified="2021-06-16T05:09:06.557Z" agent="5.0 (Windows NT 10.0; Win64; x64) AppleWebKit/537.36 (KHTML, like Gecko) Chrome/91.0.4472.101 Safari/537.36" etag="qZPl2BEgHRN4MKRUdiX1" version="14.7.7" type="github" pages="2">
  <diagram id="kNzsvjjbeycu3PSovNkS" name="Page-1">
    <mxGraphModel dx="1550" dy="777" grid="1" gridSize="10" guides="1" tooltips="1" connect="1" arrows="1" fold="1" page="1" pageScale="1" pageWidth="1100" pageHeight="850" math="0" shadow="0">
      <root>
        <mxCell id="0" />
        <mxCell id="1" parent="0" />
        <mxCell id="t5qHoFmcPcWfKDXQ28jl-11" value="" style="whiteSpace=wrap;html=1;aspect=fixed;" parent="1" vertex="1">
          <mxGeometry x="280" y="195" width="330" height="330" as="geometry" />
        </mxCell>
        <mxCell id="t5qHoFmcPcWfKDXQ28jl-2" value="Actor" style="shape=umlActor;verticalLabelPosition=bottom;verticalAlign=top;html=1;outlineConnect=0;" parent="1" vertex="1">
          <mxGeometry x="30" y="330" width="30" height="60" as="geometry" />
        </mxCell>
        <mxCell id="t5qHoFmcPcWfKDXQ28jl-3" value="Map Interface (Google Map, etc)" style="whiteSpace=wrap;html=1;aspect=fixed;" parent="1" vertex="1">
          <mxGeometry x="250" y="40" width="80" height="80" as="geometry" />
        </mxCell>
        <mxCell id="t5qHoFmcPcWfKDXQ28jl-5" value="POI Datastore" style="shape=cylinder3;whiteSpace=wrap;html=1;boundedLbl=1;backgroundOutline=1;size=15;" parent="1" vertex="1">
          <mxGeometry x="690" y="380" width="90" height="100" as="geometry" />
        </mxCell>
        <mxCell id="t5qHoFmcPcWfKDXQ28jl-12" value="Search Service" style="rounded=0;whiteSpace=wrap;html=1;" parent="1" vertex="1">
          <mxGeometry x="310" y="460" width="120" height="60" as="geometry" />
        </mxCell>
        <mxCell id="t5qHoFmcPcWfKDXQ28jl-13" value="" style="rounded=0;whiteSpace=wrap;html=1;" parent="1" vertex="1">
          <mxGeometry x="110" y="210" width="120" height="300" as="geometry" />
        </mxCell>
        <mxCell id="t5qHoFmcPcWfKDXQ28jl-14" value="" style="endArrow=classic;startArrow=classic;html=1;entryX=0;entryY=0.5;entryDx=0;entryDy=0;" parent="1" source="t5qHoFmcPcWfKDXQ28jl-2" target="t5qHoFmcPcWfKDXQ28jl-13" edge="1">
          <mxGeometry width="50" height="50" relative="1" as="geometry">
            <mxPoint x="400" y="400" as="sourcePoint" />
            <mxPoint x="450" y="350" as="targetPoint" />
          </mxGeometry>
        </mxCell>
        <mxCell id="t5qHoFmcPcWfKDXQ28jl-15" value="Cache" style="ellipse;shape=cloud;whiteSpace=wrap;html=1;" parent="1" vertex="1">
          <mxGeometry x="480" y="540" width="100" height="70" as="geometry" />
        </mxCell>
        <mxCell id="t5qHoFmcPcWfKDXQ28jl-16" value="" style="endArrow=classic;startArrow=classic;html=1;entryX=0.16;entryY=0.55;entryDx=0;entryDy=0;entryPerimeter=0;exitX=1;exitY=0.5;exitDx=0;exitDy=0;" parent="1" source="t5qHoFmcPcWfKDXQ28jl-12" target="t5qHoFmcPcWfKDXQ28jl-15" edge="1">
          <mxGeometry width="50" height="50" relative="1" as="geometry">
            <mxPoint x="400" y="400" as="sourcePoint" />
            <mxPoint x="450" y="350" as="targetPoint" />
          </mxGeometry>
        </mxCell>
        <mxCell id="t5qHoFmcPcWfKDXQ28jl-17" value="" style="endArrow=none;startArrow=classic;html=1;entryX=0;entryY=0;entryDx=0;entryDy=67.5;entryPerimeter=0;endFill=0;" parent="1" source="t5qHoFmcPcWfKDXQ28jl-12" target="t5qHoFmcPcWfKDXQ28jl-5" edge="1">
          <mxGeometry width="50" height="50" relative="1" as="geometry">
            <mxPoint x="400" y="400" as="sourcePoint" />
            <mxPoint x="450" y="350" as="targetPoint" />
          </mxGeometry>
        </mxCell>
        <mxCell id="t5qHoFmcPcWfKDXQ28jl-18" value="User Service" style="rounded=0;whiteSpace=wrap;html=1;" parent="1" vertex="1">
          <mxGeometry x="310" y="289" width="120" height="60" as="geometry" />
        </mxCell>
        <mxCell id="t5qHoFmcPcWfKDXQ28jl-20" value="" style="endArrow=classic;startArrow=classic;html=1;" parent="1" source="t5qHoFmcPcWfKDXQ28jl-21" target="t5qHoFmcPcWfKDXQ28jl-5" edge="1">
          <mxGeometry width="50" height="50" relative="1" as="geometry">
            <mxPoint x="400" y="400" as="sourcePoint" />
            <mxPoint x="450" y="350" as="targetPoint" />
          </mxGeometry>
        </mxCell>
        <mxCell id="t5qHoFmcPcWfKDXQ28jl-21" value="POI Service" style="rounded=0;whiteSpace=wrap;html=1;" parent="1" vertex="1">
          <mxGeometry x="310" y="370" width="120" height="60" as="geometry" />
        </mxCell>
        <mxCell id="t5qHoFmcPcWfKDXQ28jl-24" value="User Datastore" style="shape=cylinder3;whiteSpace=wrap;html=1;boundedLbl=1;backgroundOutline=1;size=15;" parent="1" vertex="1">
          <mxGeometry x="700" y="260" width="70" height="100" as="geometry" />
        </mxCell>
        <mxCell id="t5qHoFmcPcWfKDXQ28jl-25" value="" style="endArrow=classic;startArrow=classic;html=1;entryX=0;entryY=0.5;entryDx=0;entryDy=0;entryPerimeter=0;" parent="1" source="t5qHoFmcPcWfKDXQ28jl-18" target="t5qHoFmcPcWfKDXQ28jl-24" edge="1">
          <mxGeometry width="50" height="50" relative="1" as="geometry">
            <mxPoint x="400" y="390" as="sourcePoint" />
            <mxPoint x="450" y="340" as="targetPoint" />
          </mxGeometry>
        </mxCell>
        <mxCell id="t5qHoFmcPcWfKDXQ28jl-27" value="File store" style="shape=cylinder3;whiteSpace=wrap;html=1;boundedLbl=1;backgroundOutline=1;size=15;" parent="1" vertex="1">
          <mxGeometry x="670" y="510" width="70" height="100" as="geometry" />
        </mxCell>
        <mxCell id="t5qHoFmcPcWfKDXQ28jl-28" value="Route Service" style="rounded=0;whiteSpace=wrap;html=1;" parent="1" vertex="1">
          <mxGeometry x="310" y="210" width="120" height="60" as="geometry" />
        </mxCell>
        <mxCell id="t5qHoFmcPcWfKDXQ28jl-29" value="" style="endArrow=classic;startArrow=classic;html=1;entryX=0;entryY=0;entryDx=0;entryDy=15;entryPerimeter=0;exitX=1;exitY=0.75;exitDx=0;exitDy=0;" parent="1" source="t5qHoFmcPcWfKDXQ28jl-21" target="t5qHoFmcPcWfKDXQ28jl-27" edge="1">
          <mxGeometry width="50" height="50" relative="1" as="geometry">
            <mxPoint x="400" y="390" as="sourcePoint" />
            <mxPoint x="450" y="340" as="targetPoint" />
          </mxGeometry>
        </mxCell>
        <mxCell id="t5qHoFmcPcWfKDXQ28jl-30" value="Route Datastore" style="shape=cylinder3;whiteSpace=wrap;html=1;boundedLbl=1;backgroundOutline=1;size=15;" parent="1" vertex="1">
          <mxGeometry x="700" y="150" width="70" height="90" as="geometry" />
        </mxCell>
        <mxCell id="t5qHoFmcPcWfKDXQ28jl-31" value="" style="endArrow=classic;startArrow=classic;html=1;entryX=0;entryY=0;entryDx=0;entryDy=60;entryPerimeter=0;" parent="1" source="t5qHoFmcPcWfKDXQ28jl-28" target="t5qHoFmcPcWfKDXQ28jl-30" edge="1">
          <mxGeometry width="50" height="50" relative="1" as="geometry">
            <mxPoint x="400" y="390" as="sourcePoint" />
            <mxPoint x="450" y="340" as="targetPoint" />
          </mxGeometry>
        </mxCell>
        <mxCell id="t5qHoFmcPcWfKDXQ28jl-32" value="" style="endArrow=classic;startArrow=classic;html=1;entryX=0.913;entryY=1;entryDx=0;entryDy=0;entryPerimeter=0;exitX=0.5;exitY=0;exitDx=0;exitDy=0;" parent="1" source="t5qHoFmcPcWfKDXQ28jl-28" target="t5qHoFmcPcWfKDXQ28jl-3" edge="1">
          <mxGeometry width="50" height="50" relative="1" as="geometry">
            <mxPoint x="400" y="390" as="sourcePoint" />
            <mxPoint x="450" y="340" as="targetPoint" />
          </mxGeometry>
        </mxCell>
        <mxCell id="t5qHoFmcPcWfKDXQ28jl-33" value="Show/update Map" style="rounded=0;whiteSpace=wrap;html=1;" parent="1" vertex="1">
          <mxGeometry x="125" y="230" width="90" height="50" as="geometry" />
        </mxCell>
        <mxCell id="t5qHoFmcPcWfKDXQ28jl-35" value="" style="endArrow=classic;startArrow=classic;html=1;entryX=0.25;entryY=1;entryDx=0;entryDy=0;exitX=0.5;exitY=0;exitDx=0;exitDy=0;" parent="1" source="t5qHoFmcPcWfKDXQ28jl-33" target="t5qHoFmcPcWfKDXQ28jl-3" edge="1">
          <mxGeometry width="50" height="50" relative="1" as="geometry">
            <mxPoint x="400" y="380" as="sourcePoint" />
            <mxPoint x="450" y="330" as="targetPoint" />
          </mxGeometry>
        </mxCell>
        <mxCell id="t5qHoFmcPcWfKDXQ28jl-36" value="" style="endArrow=classic;startArrow=classic;html=1;exitX=0.942;exitY=0.992;exitDx=0;exitDy=0;exitPerimeter=0;" parent="1" source="t5qHoFmcPcWfKDXQ28jl-21" target="t5qHoFmcPcWfKDXQ28jl-15" edge="1">
          <mxGeometry width="50" height="50" relative="1" as="geometry">
            <mxPoint x="400" y="380" as="sourcePoint" />
            <mxPoint x="450" y="330" as="targetPoint" />
          </mxGeometry>
        </mxCell>
        <mxCell id="t5qHoFmcPcWfKDXQ28jl-37" value="Register/login" style="rounded=0;whiteSpace=wrap;html=1;" parent="1" vertex="1">
          <mxGeometry x="125" y="298" width="90" height="32" as="geometry" />
        </mxCell>
        <mxCell id="t5qHoFmcPcWfKDXQ28jl-38" value="" style="endArrow=classic;startArrow=classic;html=1;entryX=0;entryY=0.5;entryDx=0;entryDy=0;exitX=1;exitY=0.5;exitDx=0;exitDy=0;" parent="1" source="t5qHoFmcPcWfKDXQ28jl-37" target="t5qHoFmcPcWfKDXQ28jl-18" edge="1">
          <mxGeometry width="50" height="50" relative="1" as="geometry">
            <mxPoint x="400" y="380" as="sourcePoint" />
            <mxPoint x="450" y="330" as="targetPoint" />
          </mxGeometry>
        </mxCell>
        <mxCell id="t5qHoFmcPcWfKDXQ28jl-39" value="Search" style="rounded=0;whiteSpace=wrap;html=1;" parent="1" vertex="1">
          <mxGeometry x="127.5" y="460" width="85" height="31" as="geometry" />
        </mxCell>
        <mxCell id="t5qHoFmcPcWfKDXQ28jl-40" value="" style="endArrow=classic;startArrow=classic;html=1;entryX=0;entryY=0.5;entryDx=0;entryDy=0;exitX=1;exitY=0.5;exitDx=0;exitDy=0;" parent="1" source="t5qHoFmcPcWfKDXQ28jl-39" target="t5qHoFmcPcWfKDXQ28jl-12" edge="1">
          <mxGeometry width="50" height="50" relative="1" as="geometry">
            <mxPoint x="400" y="380" as="sourcePoint" />
            <mxPoint x="450" y="330" as="targetPoint" />
          </mxGeometry>
        </mxCell>
        <mxCell id="t5qHoFmcPcWfKDXQ28jl-41" value="Show POI" style="rounded=0;whiteSpace=wrap;html=1;" parent="1" vertex="1">
          <mxGeometry x="130" y="390" width="80" height="40" as="geometry" />
        </mxCell>
        <mxCell id="t5qHoFmcPcWfKDXQ28jl-42" value="" style="endArrow=classic;startArrow=classic;html=1;" parent="1" target="t5qHoFmcPcWfKDXQ28jl-21" edge="1">
          <mxGeometry width="50" height="50" relative="1" as="geometry">
            <mxPoint x="220" y="410" as="sourcePoint" />
            <mxPoint x="450" y="330" as="targetPoint" />
          </mxGeometry>
        </mxCell>
        <mxCell id="t5qHoFmcPcWfKDXQ28jl-43" value="Route" style="rounded=0;whiteSpace=wrap;html=1;" parent="1" vertex="1">
          <mxGeometry x="125" y="345" width="85" height="35" as="geometry" />
        </mxCell>
        <mxCell id="t5qHoFmcPcWfKDXQ28jl-45" value="" style="endArrow=classic;startArrow=classic;html=1;entryX=0;entryY=0.75;entryDx=0;entryDy=0;exitX=1;exitY=0.75;exitDx=0;exitDy=0;" parent="1" source="t5qHoFmcPcWfKDXQ28jl-43" target="t5qHoFmcPcWfKDXQ28jl-28" edge="1">
          <mxGeometry width="50" height="50" relative="1" as="geometry">
            <mxPoint x="400" y="380" as="sourcePoint" />
            <mxPoint x="450" y="330" as="targetPoint" />
          </mxGeometry>
        </mxCell>
        <mxCell id="ADsMzs2XNh3c-vHGguk0-4" value="Actor" style="shape=umlActor;verticalLabelPosition=bottom;verticalAlign=top;html=1;outlineConnect=0;" parent="1" vertex="1">
          <mxGeometry x="20" y="800" width="30" height="60" as="geometry" />
        </mxCell>
        <mxCell id="ADsMzs2XNh3c-vHGguk0-5" value="show POI details API" style="rounded=0;whiteSpace=wrap;html=1;" parent="1" vertex="1">
          <mxGeometry x="95" y="800" width="75" height="60" as="geometry" />
        </mxCell>
        <mxCell id="ADsMzs2XNh3c-vHGguk0-6" value="POI Controller" style="rounded=0;whiteSpace=wrap;html=1;" parent="1" vertex="1">
          <mxGeometry x="260" y="800" width="100" height="60" as="geometry" />
        </mxCell>
        <mxCell id="ADsMzs2XNh3c-vHGguk0-7" value="POI Service" style="rounded=0;whiteSpace=wrap;html=1;" parent="1" vertex="1">
          <mxGeometry x="425" y="800" width="120" height="60" as="geometry" />
        </mxCell>
        <mxCell id="ADsMzs2XNh3c-vHGguk0-8" value="POI DAO" style="rounded=0;whiteSpace=wrap;html=1;" parent="1" vertex="1">
          <mxGeometry x="590" y="800" width="120" height="60" as="geometry" />
        </mxCell>
        <mxCell id="ADsMzs2XNh3c-vHGguk0-9" value="POI datastore" style="shape=cylinder3;whiteSpace=wrap;html=1;boundedLbl=1;backgroundOutline=1;size=15;" parent="1" vertex="1">
          <mxGeometry x="770" y="790" width="60" height="80" as="geometry" />
        </mxCell>
        <mxCell id="ADsMzs2XNh3c-vHGguk0-10" value="" style="endArrow=classic;html=1;entryX=0;entryY=0.383;entryDx=0;entryDy=0;entryPerimeter=0;" parent="1" target="ADsMzs2XNh3c-vHGguk0-6" edge="1">
          <mxGeometry relative="1" as="geometry">
            <mxPoint x="170" y="820" as="sourcePoint" />
            <mxPoint x="240" y="820" as="targetPoint" />
          </mxGeometry>
        </mxCell>
        <mxCell id="ADsMzs2XNh3c-vHGguk0-13" value="POI_id" style="edgeLabel;html=1;align=center;verticalAlign=middle;resizable=0;points=[];" parent="ADsMzs2XNh3c-vHGguk0-10" vertex="1" connectable="0">
          <mxGeometry x="0.35" y="1" relative="1" as="geometry">
            <mxPoint x="-16" y="1" as="offset" />
          </mxGeometry>
        </mxCell>
        <mxCell id="ADsMzs2XNh3c-vHGguk0-12" value="" style="endArrow=classic;html=1;entryX=0;entryY=0.5;entryDx=0;entryDy=0;" parent="1" source="ADsMzs2XNh3c-vHGguk0-4" target="ADsMzs2XNh3c-vHGguk0-5" edge="1">
          <mxGeometry width="50" height="50" relative="1" as="geometry">
            <mxPoint x="50" y="840" as="sourcePoint" />
            <mxPoint x="100" y="790" as="targetPoint" />
          </mxGeometry>
        </mxCell>
        <mxCell id="ADsMzs2XNh3c-vHGguk0-16" value="poi_id" style="endArrow=classic;html=1;exitX=1;exitY=0.5;exitDx=0;exitDy=0;" parent="1" source="ADsMzs2XNh3c-vHGguk0-6" edge="1">
          <mxGeometry x="-0.149" relative="1" as="geometry">
            <mxPoint x="380" y="829.5" as="sourcePoint" />
            <mxPoint x="430" y="830" as="targetPoint" />
            <Array as="points">
              <mxPoint x="430" y="829.5" />
            </Array>
            <mxPoint as="offset" />
          </mxGeometry>
        </mxCell>
        <mxCell id="ADsMzs2XNh3c-vHGguk0-18" value="" style="endArrow=classic;html=1;" parent="1" edge="1">
          <mxGeometry relative="1" as="geometry">
            <mxPoint x="550" y="829.5" as="sourcePoint" />
            <mxPoint x="590" y="830" as="targetPoint" />
          </mxGeometry>
        </mxCell>
        <mxCell id="ADsMzs2XNh3c-vHGguk0-19" value="Label" style="edgeLabel;resizable=0;html=1;align=center;verticalAlign=middle;" parent="ADsMzs2XNh3c-vHGguk0-18" connectable="0" vertex="1">
          <mxGeometry relative="1" as="geometry" />
        </mxCell>
        <mxCell id="ADsMzs2XNh3c-vHGguk0-20" value="poi_id" style="edgeLabel;resizable=0;html=1;align=left;verticalAlign=bottom;" parent="ADsMzs2XNh3c-vHGguk0-18" connectable="0" vertex="1">
          <mxGeometry x="-1" relative="1" as="geometry" />
        </mxCell>
        <mxCell id="ADsMzs2XNh3c-vHGguk0-21" value="" style="endArrow=classic;html=1;" parent="1" edge="1">
          <mxGeometry relative="1" as="geometry">
            <mxPoint x="770" y="850" as="sourcePoint" />
            <mxPoint x="710" y="850" as="targetPoint" />
          </mxGeometry>
        </mxCell>
        <mxCell id="ADsMzs2XNh3c-vHGguk0-22" value="POI Row" style="edgeLabel;resizable=0;html=1;align=center;verticalAlign=middle;" parent="ADsMzs2XNh3c-vHGguk0-21" connectable="0" vertex="1">
          <mxGeometry relative="1" as="geometry">
            <mxPoint y="-10" as="offset" />
          </mxGeometry>
        </mxCell>
        <mxCell id="ADsMzs2XNh3c-vHGguk0-23" value="poi_entity" style="endArrow=classic;html=1;" parent="1" edge="1">
          <mxGeometry relative="1" as="geometry">
            <mxPoint x="590" y="850" as="sourcePoint" />
            <mxPoint x="550" y="850" as="targetPoint" />
          </mxGeometry>
        </mxCell>
        <mxCell id="ADsMzs2XNh3c-vHGguk0-25" value="entity" style="endArrow=classic;html=1;" parent="1" edge="1">
          <mxGeometry relative="1" as="geometry">
            <mxPoint x="430" y="850" as="sourcePoint" />
            <mxPoint x="360" y="850" as="targetPoint" />
          </mxGeometry>
        </mxCell>
        <mxCell id="ADsMzs2XNh3c-vHGguk0-26" value="Label" style="edgeLabel;resizable=0;html=1;align=center;verticalAlign=middle;" parent="ADsMzs2XNh3c-vHGguk0-25" connectable="0" vertex="1">
          <mxGeometry relative="1" as="geometry" />
        </mxCell>
        <mxCell id="ADsMzs2XNh3c-vHGguk0-27" value="POI_json" style="endArrow=classic;html=1;" parent="1" edge="1">
          <mxGeometry relative="1" as="geometry">
            <mxPoint x="259" y="850" as="sourcePoint" />
            <mxPoint x="170" y="850" as="targetPoint" />
          </mxGeometry>
        </mxCell>
        <mxCell id="ADsMzs2XNh3c-vHGguk0-29" value="Get single POI Details" style="text;html=1;strokeColor=none;fillColor=none;align=center;verticalAlign=middle;whiteSpace=wrap;rounded=0;" parent="1" vertex="1">
          <mxGeometry x="20" y="730" width="140" height="20" as="geometry" />
        </mxCell>
        <mxCell id="B7q8sF04wc4RiD9ppFUX-1" value="Get all POI name and icon of a city" style="text;html=1;strokeColor=none;fillColor=none;align=center;verticalAlign=middle;whiteSpace=wrap;rounded=0;" vertex="1" parent="1">
          <mxGeometry x="15" y="910" width="200" height="20" as="geometry" />
        </mxCell>
        <mxCell id="0vp1MS_QijiNhVrhRR7S-1" value="GET poi namecity_id =&amp;gt; list of POIid and image url" style="text;html=1;strokeColor=none;fillColor=none;align=center;verticalAlign=middle;whiteSpace=wrap;rounded=0;" vertex="1" parent="1">
          <mxGeometry x="20" y="940" width="340" height="20" as="geometry" />
        </mxCell>
        <mxCell id="B7q8sF04wc4RiD9ppFUX-2" value="User register" style="text;html=1;strokeColor=none;fillColor=none;align=center;verticalAlign=middle;whiteSpace=wrap;rounded=0;" vertex="1" parent="1">
          <mxGeometry x="15" y="1030" width="90" height="20" as="geometry" />
        </mxCell>
        <mxCell id="B7q8sF04wc4RiD9ppFUX-4" value="User login" style="text;html=1;strokeColor=none;fillColor=none;align=center;verticalAlign=middle;whiteSpace=wrap;rounded=0;" vertex="1" parent="1">
          <mxGeometry x="15" y="1120" width="90" height="20" as="geometry" />
        </mxCell>
        <mxCell id="B7q8sF04wc4RiD9ppFUX-5" value="Search POI" style="text;html=1;strokeColor=none;fillColor=none;align=center;verticalAlign=middle;whiteSpace=wrap;rounded=0;" vertex="1" parent="1">
          <mxGeometry x="20" y="1210" width="80" height="10" as="geometry" />
        </mxCell>
        <mxCell id="B7q8sF04wc4RiD9ppFUX-6" value="Route" style="text;html=1;strokeColor=none;fillColor=none;align=center;verticalAlign=middle;whiteSpace=wrap;rounded=0;" vertex="1" parent="1">
          <mxGeometry x="25" y="1280" width="40" height="20" as="geometry" />
        </mxCell>
        <mxCell id="0vp1MS_QijiNhVrhRR7S-2" value="keywords =&amp;gt; related POI" style="text;html=1;strokeColor=none;fillColor=none;align=center;verticalAlign=middle;whiteSpace=wrap;rounded=0;" vertex="1" parent="1">
          <mxGeometry x="60" y="1205" width="340" height="20" as="geometry" />
        </mxCell>
        <mxCell id="B7q8sF04wc4RiD9ppFUX-7" value="save" style="text;html=1;strokeColor=none;fillColor=none;align=center;verticalAlign=middle;whiteSpace=wrap;rounded=0;" vertex="1" parent="1">
          <mxGeometry x="60" y="1320" width="40" height="30" as="geometry" />
        </mxCell>
        <mxCell id="0vp1MS_QijiNhVrhRR7S-3" value="save : list of POI, start location, end location, user ID =&amp;gt; success message" style="text;html=1;strokeColor=none;fillColor=none;align=center;verticalAlign=middle;whiteSpace=wrap;rounded=0;" vertex="1" parent="1">
          <mxGeometry x="120" y="1325" width="400" height="20" as="geometry" />
        </mxCell>
        <mxCell id="B7q8sF04wc4RiD9ppFUX-8" value="get" style="text;html=1;strokeColor=none;fillColor=none;align=center;verticalAlign=middle;whiteSpace=wrap;rounded=0;" vertex="1" parent="1">
          <mxGeometry x="60" y="1360" width="40" height="20" as="geometry" />
        </mxCell>
        <mxCell id="0vp1MS_QijiNhVrhRR7S-4" value="get: route id =&amp;gt; list of POI, start location, end location" style="text;html=1;strokeColor=none;fillColor=none;align=center;verticalAlign=middle;whiteSpace=wrap;rounded=0;" vertex="1" parent="1">
          <mxGeometry x="127.5" y="1360" width="290" height="20" as="geometry" />
        </mxCell>
        <mxCell id="B7q8sF04wc4RiD9ppFUX-9" value="delete" style="text;html=1;strokeColor=none;fillColor=none;align=center;verticalAlign=middle;whiteSpace=wrap;rounded=0;" vertex="1" parent="1">
          <mxGeometry x="65" y="1400" width="40" height="20" as="geometry" />
        </mxCell>
        <mxCell id="0vp1MS_QijiNhVrhRR7S-5" value="delete: route id =&amp;gt; success message" style="text;html=1;strokeColor=none;fillColor=none;align=center;verticalAlign=middle;whiteSpace=wrap;rounded=0;" vertex="1" parent="1">
          <mxGeometry x="130" y="1400" width="200" height="20" as="geometry" />
        </mxCell>
      </root>
    </mxGraphModel>
  </diagram>
  <diagram id="aDnz6DyPfGt7BgsXZk0M" name="Page-2">
    <mxGraphModel dx="1550" dy="777" grid="1" gridSize="10" guides="1" tooltips="1" connect="1" arrows="1" fold="1" page="1" pageScale="1" pageWidth="1100" pageHeight="850" math="0" shadow="0">
      <root>
        <mxCell id="64hU7iYNRlZ3EdSoB02A-0" />
        <mxCell id="64hU7iYNRlZ3EdSoB02A-1" parent="64hU7iYNRlZ3EdSoB02A-0" />
        <mxCell id="tGV0RQAGPbp4HRWJ19ka-0" value="Actor" style="shape=umlActor;verticalLabelPosition=bottom;verticalAlign=top;html=1;outlineConnect=0;" vertex="1" parent="64hU7iYNRlZ3EdSoB02A-1">
          <mxGeometry x="45" y="50" width="30" height="60" as="geometry" />
        </mxCell>
        <mxCell id="tGV0RQAGPbp4HRWJ19ka-1" value="show POI details API" style="rounded=0;whiteSpace=wrap;html=1;" vertex="1" parent="64hU7iYNRlZ3EdSoB02A-1">
          <mxGeometry x="120" y="50" width="75" height="60" as="geometry" />
        </mxCell>
        <mxCell id="tGV0RQAGPbp4HRWJ19ka-2" value="POI Controller" style="rounded=0;whiteSpace=wrap;html=1;" vertex="1" parent="64hU7iYNRlZ3EdSoB02A-1">
          <mxGeometry x="285" y="50" width="100" height="60" as="geometry" />
        </mxCell>
        <mxCell id="tGV0RQAGPbp4HRWJ19ka-3" value="POI Service" style="rounded=0;whiteSpace=wrap;html=1;" vertex="1" parent="64hU7iYNRlZ3EdSoB02A-1">
          <mxGeometry x="450" y="50" width="120" height="60" as="geometry" />
        </mxCell>
        <mxCell id="tGV0RQAGPbp4HRWJ19ka-4" value="POI DAO" style="rounded=0;whiteSpace=wrap;html=1;" vertex="1" parent="64hU7iYNRlZ3EdSoB02A-1">
          <mxGeometry x="615" y="50" width="120" height="60" as="geometry" />
        </mxCell>
        <mxCell id="tGV0RQAGPbp4HRWJ19ka-5" value="POI datastore" style="shape=cylinder3;whiteSpace=wrap;html=1;boundedLbl=1;backgroundOutline=1;size=15;" vertex="1" parent="64hU7iYNRlZ3EdSoB02A-1">
          <mxGeometry x="795" y="40" width="60" height="80" as="geometry" />
        </mxCell>
        <mxCell id="tGV0RQAGPbp4HRWJ19ka-6" value="" style="endArrow=classic;html=1;entryX=0;entryY=0.383;entryDx=0;entryDy=0;entryPerimeter=0;exitX=1.008;exitY=0.397;exitDx=0;exitDy=0;exitPerimeter=0;" edge="1" parent="64hU7iYNRlZ3EdSoB02A-1" target="tGV0RQAGPbp4HRWJ19ka-2" source="tGV0RQAGPbp4HRWJ19ka-1">
          <mxGeometry relative="1" as="geometry">
            <mxPoint x="195" y="70" as="sourcePoint" />
            <mxPoint x="265" y="70" as="targetPoint" />
          </mxGeometry>
        </mxCell>
        <mxCell id="tGV0RQAGPbp4HRWJ19ka-7" value="POI_id" style="edgeLabel;html=1;align=center;verticalAlign=middle;resizable=0;points=[];" vertex="1" connectable="0" parent="tGV0RQAGPbp4HRWJ19ka-6">
          <mxGeometry x="0.35" y="1" relative="1" as="geometry">
            <mxPoint x="-16" y="1" as="offset" />
          </mxGeometry>
        </mxCell>
        <mxCell id="tGV0RQAGPbp4HRWJ19ka-8" value="" style="endArrow=classic;html=1;entryX=0;entryY=0.5;entryDx=0;entryDy=0;" edge="1" parent="64hU7iYNRlZ3EdSoB02A-1" source="tGV0RQAGPbp4HRWJ19ka-0" target="tGV0RQAGPbp4HRWJ19ka-1">
          <mxGeometry width="50" height="50" relative="1" as="geometry">
            <mxPoint x="75" y="90" as="sourcePoint" />
            <mxPoint x="125" y="40" as="targetPoint" />
          </mxGeometry>
        </mxCell>
        <mxCell id="tGV0RQAGPbp4HRWJ19ka-9" value="poi_id" style="endArrow=classic;html=1;exitX=1;exitY=0.5;exitDx=0;exitDy=0;" edge="1" parent="64hU7iYNRlZ3EdSoB02A-1" source="tGV0RQAGPbp4HRWJ19ka-2">
          <mxGeometry x="-0.149" relative="1" as="geometry">
            <mxPoint x="405" y="79.5" as="sourcePoint" />
            <mxPoint x="455" y="80" as="targetPoint" />
            <Array as="points">
              <mxPoint x="455" y="79.5" />
            </Array>
            <mxPoint as="offset" />
          </mxGeometry>
        </mxCell>
        <mxCell id="tGV0RQAGPbp4HRWJ19ka-10" value="" style="endArrow=classic;html=1;" edge="1" parent="64hU7iYNRlZ3EdSoB02A-1">
          <mxGeometry relative="1" as="geometry">
            <mxPoint x="575" y="79.5" as="sourcePoint" />
            <mxPoint x="615" y="80" as="targetPoint" />
          </mxGeometry>
        </mxCell>
        <mxCell id="tGV0RQAGPbp4HRWJ19ka-11" value="Label" style="edgeLabel;resizable=0;html=1;align=center;verticalAlign=middle;" connectable="0" vertex="1" parent="tGV0RQAGPbp4HRWJ19ka-10">
          <mxGeometry relative="1" as="geometry" />
        </mxCell>
        <mxCell id="tGV0RQAGPbp4HRWJ19ka-12" value="poi_id" style="edgeLabel;resizable=0;html=1;align=left;verticalAlign=bottom;" connectable="0" vertex="1" parent="tGV0RQAGPbp4HRWJ19ka-10">
          <mxGeometry x="-1" relative="1" as="geometry" />
        </mxCell>
        <mxCell id="tGV0RQAGPbp4HRWJ19ka-13" value="" style="endArrow=classic;html=1;" edge="1" parent="64hU7iYNRlZ3EdSoB02A-1">
          <mxGeometry relative="1" as="geometry">
            <mxPoint x="795" y="100" as="sourcePoint" />
            <mxPoint x="735" y="100" as="targetPoint" />
          </mxGeometry>
        </mxCell>
        <mxCell id="tGV0RQAGPbp4HRWJ19ka-14" value="POI Row" style="edgeLabel;resizable=0;html=1;align=center;verticalAlign=middle;" connectable="0" vertex="1" parent="tGV0RQAGPbp4HRWJ19ka-13">
          <mxGeometry relative="1" as="geometry">
            <mxPoint y="-10" as="offset" />
          </mxGeometry>
        </mxCell>
        <mxCell id="tGV0RQAGPbp4HRWJ19ka-15" value="poi_entity" style="endArrow=classic;html=1;" edge="1" parent="64hU7iYNRlZ3EdSoB02A-1">
          <mxGeometry relative="1" as="geometry">
            <mxPoint x="615" y="100" as="sourcePoint" />
            <mxPoint x="575" y="100" as="targetPoint" />
          </mxGeometry>
        </mxCell>
        <mxCell id="tGV0RQAGPbp4HRWJ19ka-16" value="entity" style="endArrow=classic;html=1;" edge="1" parent="64hU7iYNRlZ3EdSoB02A-1">
          <mxGeometry relative="1" as="geometry">
            <mxPoint x="455" y="100" as="sourcePoint" />
            <mxPoint x="385" y="100" as="targetPoint" />
          </mxGeometry>
        </mxCell>
        <mxCell id="tGV0RQAGPbp4HRWJ19ka-17" value="Label" style="edgeLabel;resizable=0;html=1;align=center;verticalAlign=middle;" connectable="0" vertex="1" parent="tGV0RQAGPbp4HRWJ19ka-16">
          <mxGeometry relative="1" as="geometry" />
        </mxCell>
        <mxCell id="tGV0RQAGPbp4HRWJ19ka-18" value="POI_json" style="endArrow=classic;html=1;" edge="1" parent="64hU7iYNRlZ3EdSoB02A-1">
          <mxGeometry relative="1" as="geometry">
            <mxPoint x="284" y="100" as="sourcePoint" />
            <mxPoint x="195" y="100" as="targetPoint" />
          </mxGeometry>
        </mxCell>
        <mxCell id="tGV0RQAGPbp4HRWJ19ka-19" value="Get all POI name and icon of a city" style="text;html=1;strokeColor=none;fillColor=none;align=center;verticalAlign=middle;whiteSpace=wrap;rounded=0;" vertex="1" parent="64hU7iYNRlZ3EdSoB02A-1">
          <mxGeometry x="40" y="200" width="200" height="20" as="geometry" />
        </mxCell>
        <mxCell id="tGV0RQAGPbp4HRWJ19ka-20" value="GET poi name" style="text;html=1;strokeColor=none;fillColor=none;align=center;verticalAlign=middle;whiteSpace=wrap;rounded=0;" vertex="1" parent="64hU7iYNRlZ3EdSoB02A-1">
          <mxGeometry x="22.5" y="240" width="125" height="20" as="geometry" />
        </mxCell>
        <mxCell id="tGV0RQAGPbp4HRWJ19ka-21" value="User register" style="text;html=1;strokeColor=none;fillColor=none;align=center;verticalAlign=middle;whiteSpace=wrap;rounded=0;" vertex="1" parent="64hU7iYNRlZ3EdSoB02A-1">
          <mxGeometry x="40" y="320" width="90" height="20" as="geometry" />
        </mxCell>
        <mxCell id="tGV0RQAGPbp4HRWJ19ka-22" value="User login" style="text;html=1;strokeColor=none;fillColor=none;align=center;verticalAlign=middle;whiteSpace=wrap;rounded=0;" vertex="1" parent="64hU7iYNRlZ3EdSoB02A-1">
          <mxGeometry x="40" y="410" width="90" height="20" as="geometry" />
        </mxCell>
        <mxCell id="tGV0RQAGPbp4HRWJ19ka-23" value="Search POI" style="text;html=1;strokeColor=none;fillColor=none;align=center;verticalAlign=middle;whiteSpace=wrap;rounded=0;" vertex="1" parent="64hU7iYNRlZ3EdSoB02A-1">
          <mxGeometry x="45" y="500" width="80" height="10" as="geometry" />
        </mxCell>
        <mxCell id="tGV0RQAGPbp4HRWJ19ka-24" value="Route" style="text;html=1;strokeColor=none;fillColor=none;align=center;verticalAlign=middle;whiteSpace=wrap;rounded=0;" vertex="1" parent="64hU7iYNRlZ3EdSoB02A-1">
          <mxGeometry x="50" y="570" width="40" height="20" as="geometry" />
        </mxCell>
        <mxCell id="tGV0RQAGPbp4HRWJ19ka-25" value="keywords =&amp;gt; related POI" style="text;html=1;strokeColor=none;fillColor=none;align=center;verticalAlign=middle;whiteSpace=wrap;rounded=0;" vertex="1" parent="64hU7iYNRlZ3EdSoB02A-1">
          <mxGeometry x="85" y="495" width="340" height="20" as="geometry" />
        </mxCell>
        <mxCell id="tGV0RQAGPbp4HRWJ19ka-26" value="save" style="text;html=1;strokeColor=none;fillColor=none;align=center;verticalAlign=middle;whiteSpace=wrap;rounded=0;" vertex="1" parent="64hU7iYNRlZ3EdSoB02A-1">
          <mxGeometry x="85" y="610" width="40" height="30" as="geometry" />
        </mxCell>
        <mxCell id="tGV0RQAGPbp4HRWJ19ka-27" value="save : list of POI, start location, end location, user ID =&amp;gt; success message" style="text;html=1;strokeColor=none;fillColor=none;align=center;verticalAlign=middle;whiteSpace=wrap;rounded=0;" vertex="1" parent="64hU7iYNRlZ3EdSoB02A-1">
          <mxGeometry x="145" y="615" width="400" height="20" as="geometry" />
        </mxCell>
        <mxCell id="tGV0RQAGPbp4HRWJ19ka-28" value="get" style="text;html=1;strokeColor=none;fillColor=none;align=center;verticalAlign=middle;whiteSpace=wrap;rounded=0;" vertex="1" parent="64hU7iYNRlZ3EdSoB02A-1">
          <mxGeometry x="85" y="650" width="40" height="20" as="geometry" />
        </mxCell>
        <mxCell id="tGV0RQAGPbp4HRWJ19ka-29" value="get: route id =&amp;gt; list of POI, start location, end location" style="text;html=1;strokeColor=none;fillColor=none;align=center;verticalAlign=middle;whiteSpace=wrap;rounded=0;" vertex="1" parent="64hU7iYNRlZ3EdSoB02A-1">
          <mxGeometry x="152.5" y="650" width="290" height="20" as="geometry" />
        </mxCell>
        <mxCell id="tGV0RQAGPbp4HRWJ19ka-30" value="delete" style="text;html=1;strokeColor=none;fillColor=none;align=center;verticalAlign=middle;whiteSpace=wrap;rounded=0;" vertex="1" parent="64hU7iYNRlZ3EdSoB02A-1">
          <mxGeometry x="90" y="690" width="40" height="20" as="geometry" />
        </mxCell>
        <mxCell id="tGV0RQAGPbp4HRWJ19ka-31" value="delete: route id =&amp;gt; success message" style="text;html=1;strokeColor=none;fillColor=none;align=center;verticalAlign=middle;whiteSpace=wrap;rounded=0;" vertex="1" parent="64hU7iYNRlZ3EdSoB02A-1">
          <mxGeometry x="155" y="690" width="200" height="20" as="geometry" />
        </mxCell>
        <mxCell id="PArUXnBDU9vjnv2JVuY4-0" value="Get single POI:" style="text;html=1;strokeColor=none;fillColor=none;align=center;verticalAlign=middle;whiteSpace=wrap;rounded=0;" vertex="1" parent="64hU7iYNRlZ3EdSoB02A-1">
          <mxGeometry x="40" y="10" width="100" height="20" as="geometry" />
        </mxCell>
        <mxCell id="PArUXnBDU9vjnv2JVuY4-1" value="city_id =&amp;gt; list of POIid and image url" style="text;html=1;strokeColor=none;fillColor=none;align=center;verticalAlign=middle;whiteSpace=wrap;rounded=0;" vertex="1" parent="64hU7iYNRlZ3EdSoB02A-1">
          <mxGeometry x="25" y="280" width="340" height="20" as="geometry" />
        </mxCell>
      </root>
    </mxGraphModel>
  </diagram>
</mxfile>
